<svg xmlns="http://www.w3.org/2000/svg" xmlns:xlink="http://www.w3.org/1999/xlink" width="500" zoomAndPan="magnify" viewBox="0 0 375 374.999991" height="500" preserveAspectRatio="xMidYMid meet" version="1.0"><defs><g/></defs><g fill="#000000" fill-opacity="1"><g transform="translate(32.205889, 242.348722)"><g><path d="M 88.453125 -16.578125 L 7.203125 -52.4375 L 7.203125 -64.171875 L 88.453125 -104.703125 L 88.453125 -85.109375 L 32.5 -59.140625 L 88.453125 -36.1875 Z M 88.453125 -16.578125 "/></g></g></g><g fill="#000000" fill-opacity="1"><g transform="translate(129.707504, 242.348722)"><g><path d="M 92.644531 -47.578125 C 88.289062 -69.691406 81.085938 -82.089844 61.988281 -82.089844 C 52.605469 -82.089844 43.390625 -78.070312 37.023438 -70.195312 L 37.023438 -90.96875 L 37.191406 -113.921875 C 37.191406 -117.441406 36.019531 -118.949219 33.171875 -118.949219 C 30.492188 -118.949219 18.429688 -114.925781 11.558594 -111.574219 C 7.539062 -109.734375 6.199219 -108.558594 6.199219 -106.382812 C 6.199219 -101.355469 14.238281 -102.53125 14.238281 -90.96875 L 14.40625 -23.285156 C 14.40625 -7.707031 6.03125 -11.558594 6.03125 -4.355469 C 6.03125 -1.003906 9.046875 0 13.738281 0 L 37.695312 0 C 42.386719 0 45.066406 -0.835938 45.066406 -4.1875 C 45.066406 -11.558594 37.023438 -7.707031 37.023438 -23.285156 L 37.023438 -44.730469 C 37.023438 -59.472656 45.066406 -67.515625 53.945312 -67.515625 C 65.003906 -67.683594 68.183594 -57.296875 70.195312 -46.742188 L 75.390625 -20.269531 C 77.566406 -9.382812 68.855469 -9.882812 68.855469 -4.355469 C 68.855469 -1.003906 71.703125 0 76.394531 0 L 99.847656 0 C 104.371094 0 107.21875 -0.835938 107.21875 -4.1875 C 107.21875 -10.050781 100.519531 -8.710938 98.339844 -18.929688 Z M 92.644531 -47.578125 "/></g></g></g><g fill="#000000" fill-opacity="1"><g transform="translate(239.271181, 242.348722)"><g><path d="M 7.203125 -36.1875 L 63.15625 -59.140625 L 7.203125 -85.109375 L 7.203125 -104.703125 L 88.453125 -64.171875 L 88.453125 -52.4375 L 7.203125 -16.578125 Z M 7.203125 -36.1875 "/></g></g></g></svg>